HIERARCHY
ROOT Pelvis
{
	OFFSET 0.000000 0.000000 0.000000
	CHANNELS 6 Xposition Yposition Zposition Xrotation Yrotation Zrotation
	JOINT LeftUpLeg_virtual
	{
		OFFSET 0.000000 0.000000 0.000000
		CHANNELS 3 Xrotation Yrotation Zrotation
		JOINT LeftUpLeg
		{
			OFFSET 18.735201 -5.666702 -4.541200
			CHANNELS 3 Xrotation Yrotation Zrotation
			JOINT LeftLeg
			{
				OFFSET -0.021200 -31.938179 0.493100
				CHANNELS 3 Xrotation Yrotation Zrotation
				JOINT LeftFoot
				{
					OFFSET 0.021200 -31.938179 -4.336299
					CHANNELS 3 Xrotation Yrotation Zrotation
					JOINT LeftToeBase
					{
						OFFSET 0.943001 -26.722000 15.023500
						CHANNELS 3 Xrotation Yrotation Zrotation
						End Site
						{
							OFFSET 0 0 0
						}
					}
				}
			}
		}
	}
	JOINT RightUpLeg_virtual
	{
		OFFSET 0.000000 0.000000 0.000000
		CHANNELS 3 Xrotation Yrotation Zrotation
		JOINT RightUpLeg
		{
			OFFSET -18.735201 -5.666702 -4.541200
			CHANNELS 3 Xrotation Yrotation Zrotation
			JOINT RightLeg
			{
				OFFSET 0.018946 -31.938133 0.493100
				CHANNELS 3 Xrotation Yrotation Zrotation
				JOINT RightFoot
				{
					OFFSET -0.018946 -31.938126 -4.336299
					CHANNELS 3 Xrotation Yrotation Zrotation
					JOINT RightToeBase
					{
						OFFSET -0.943001 -26.722004 15.023500
						CHANNELS 3 Xrotation Yrotation Zrotation
						End Site
						{
							OFFSET 0 0 0
						}
					}
				}
			}
		}
	}
	JOINT Hips_virtual
	{
		OFFSET 0.000000 0.000000 0.000000
		CHANNELS 3 Xrotation Yrotation Zrotation
		JOINT Hips
		{
			OFFSET -0.000000 -0.000000 -0.000000
			CHANNELS 3 Xrotation Yrotation Zrotation
			JOINT Spine
			{
				OFFSET 0.000000 10.199997 -0.299500
				CHANNELS 3 Xrotation Yrotation Zrotation
				JOINT Spine1
				{
					OFFSET 0.000000 11.900002 -1.516600
					CHANNELS 3 Xrotation Yrotation Zrotation
					JOINT Spine2
					{
						OFFSET 0.000000 13.600006 -2.842500
						CHANNELS 3 Xrotation Yrotation Zrotation
						JOINT Neck_virtual
						{
							OFFSET 0.000000 0.000000 0.000000
							CHANNELS 3 Xrotation Yrotation Zrotation
							JOINT Neck
							{
								OFFSET 0.000000 9.624100 -2.890100
								CHANNELS 3 Xrotation Yrotation Zrotation
								JOINT Head
								{
									OFFSET 0.000000 14.068802 -1.351900
									CHANNELS 3 Xrotation Yrotation Zrotation
									End Site
									{
										OFFSET 0 0 0
									}
								}
							}
						}
						JOINT LeftShoulder_virtual
						{
							OFFSET 0.000000 0.000000 0.000000
							CHANNELS 3 Xrotation Yrotation Zrotation
							JOINT LeftShoulder
							{
								OFFSET 15.263000 10.923401 -0.547700
								CHANNELS 3 Xrotation Yrotation Zrotation
								JOINT LeftArm
								{
									OFFSET 25.438599 -2.830597 -13.032500
									CHANNELS 3 Xrotation Yrotation Zrotation
									JOINT LeftForeArm
									{
										OFFSET 29.960503 0.000000 0.000000
										CHANNELS 3 Xrotation Yrotation Zrotation
										JOINT LeftHand
										{
											OFFSET 27.849251 0.000000 0.000000
											CHANNELS 3 Xrotation Yrotation Zrotation
											End Site
											{
												OFFSET 0 0 0
											}
										}
									}
								}
							}
						}
						JOINT RightShoulder_virtual
						{
							OFFSET 0.000000 0.000000 0.000000
							CHANNELS 3 Xrotation Yrotation Zrotation
							JOINT RightShoulder
							{
								OFFSET -15.263000 10.923401 -0.547700
								CHANNELS 3 Xrotation Yrotation Zrotation
								JOINT RightArm
								{
									OFFSET -25.438599 -2.830597 -13.032500
									CHANNELS 3 Xrotation Yrotation Zrotation
									JOINT RightForeArm
									{
										OFFSET -29.960503 0.000000 0.000000
										CHANNELS 3 Xrotation Yrotation Zrotation
										JOINT RightHand
										{
											OFFSET -27.849251 0.000000 0.000000
											CHANNELS 3 Xrotation Yrotation Zrotation
											End Site
											{
												OFFSET 0 0 0
											}
										}
									}
								}
							}
						}
					}
				}
			}
		}
	}
}
MOTION
Frames: 10
Frame Time: 0.03333333
2.285655 78.588387 5.847345 0.000000 0.000000 0.000000 16.371668 -79.689463 14.626667 -38.415033 -16.501090 26.063860 47.364804 -11.420350 23.287499 -27.475334 -7.399497 -32.981037 0.000000 0.000000 0.000000 20.159114 -78.629336 18.302902 -12.525591 19.180969 -36.350902 41.948765 2.339573 -1.619084 -26.706979 5.450710 19.339920 0.000000 0.000000 0.000000 18.611381 -76.037443 17.144482 -0.883171 0.269996 -0.120034 6.628479 9.228645 1.546326 -1.148990 1.367610 2.874533 0.000000 0.000000 0.000000 -1.233897 2.317376 1.971615 0.453506 1.687819 0.678130 0.000000 0.000000 0.000000 1.088110 2.215878 2.797292 -1.393414 4.481804 -9.712701 -4.050710 12.506373 -72.901341 175.272640 -59.603810 -174.110155 0.000000 0.000000 0.000000 -0.874875 2.744709 1.293849 9.140164 14.987703 19.879689 -13.629135 38.429906 35.335103 138.689559 75.447185 -139.529304 0.000000 0.000000 0.000000 
2.399282 78.102936 5.876223 0.000000 0.000000 0.000000 13.828988 -78.198672 11.996579 -39.647742 -15.606222 27.939556 46.424584 -13.238693 19.667391 -25.602184 -8.245757 -36.554264 0.000000 0.000000 0.000000 18.257575 -77.470403 16.078796 -11.339455 17.497567 -36.565035 41.821033 0.427773 -1.770777 -28.247755 4.178035 22.020620 0.000000 0.000000 0.000000 16.403883 -74.869276 14.527783 -0.878853 0.239642 -0.061663 6.331152 8.997064 2.391444 -1.005669 1.402375 2.679669 0.000000 0.000000 0.000000 -1.029265 2.269333 1.560641 1.051539 1.687668 0.401813 0.000000 0.000000 0.000000 0.940503 2.219810 2.707782 -1.702450 4.411447 -9.717915 -1.942559 10.019767 -71.939582 177.375778 -59.697807 -172.857936 0.000000 0.000000 0.000000 -1.083752 2.753198 1.199788 9.249671 15.045672 18.240403 -13.756534 37.222984 36.579570 144.722378 74.112026 -144.938212 0.000000 0.000000 0.000000 
2.412692 79.713745 6.041368 0.000000 0.000000 0.000000 11.166377 -74.347975 8.909630 -39.062193 -12.515073 29.019817 37.799203 -15.720343 14.340228 -16.544513 -11.336433 -39.345110 0.000000 0.000000 0.000000 13.410339 -73.929722 10.857679 -9.640714 13.287800 -35.599974 40.398554 -2.467842 -1.678285 -25.308875 3.980799 23.216658 0.000000 0.000000 0.000000 12.331539 -72.034993 9.832375 -0.838519 0.191332 0.021502 5.657808 8.139482 3.463271 -0.823281 1.275596 2.473222 0.000000 0.000000 0.000000 -0.998249 2.180847 1.253791 1.501122 1.623500 0.089481 0.000000 0.000000 0.000000 0.863028 2.080118 2.488337 -2.137801 4.100425 -9.501420 -0.012306 6.244229 -68.897040 -179.971004 -59.573689 -171.422080 0.000000 0.000000 0.000000 -1.429483 2.655888 1.053744 9.406143 14.563548 16.039767 -13.942672 35.062114 37.451235 151.680279 71.825730 -151.242969 0.000000 0.000000 0.000000 
2.387601 82.904274 6.302673 0.000000 0.000000 0.000000 9.763043 -68.747042 6.844071 -36.447986 -8.193370 28.896259 24.295493 -17.352671 8.559560 -3.215062 -15.349015 -39.636500 0.000000 0.000000 0.000000 9.168257 -68.482960 6.347418 -8.764130 9.265123 -33.358371 39.431693 -5.231884 -2.072270 -16.910684 6.097852 23.547385 0.000000 0.000000 0.000000 8.794615 -67.747950 5.729194 -0.751514 0.108237 0.038767 4.621801 6.820973 4.503978 -0.552301 1.006893 2.275749 0.000000 0.000000 0.000000 -1.187537 2.052099 1.134278 1.768056 1.511283 -0.187709 0.000000 0.000000 0.000000 0.911020 1.821561 2.200364 -2.590572 3.574451 -9.309502 1.563248 1.895577 -64.480647 -177.147486 -59.330042 -169.960733 0.000000 0.000000 0.000000 -1.853292 2.465512 0.869319 9.647494 13.737892 13.613721 -14.286145 32.260623 37.700090 157.187160 69.601185 -156.079207 0.000000 0.000000 0.000000 
2.144145 86.999329 6.631788 0.000000 0.000000 0.000000 9.089565 -62.749754 5.653906 -32.444553 -3.739515 27.853006 11.320265 -17.866496 3.735944 7.549331 -17.827666 -37.834224 0.000000 0.000000 0.000000 6.611757 -62.376607 3.847848 -9.614175 7.938775 -30.644409 39.522589 -6.493858 -3.441718 -3.408036 11.255885 23.375624 0.000000 0.000000 0.000000 6.689968 -62.864952 3.441163 -0.691846 0.030361 0.038317 3.744448 5.391403 5.146418 -0.146057 0.699420 2.128329 0.000000 0.000000 0.000000 -1.463067 1.896262 1.170738 1.869749 1.369650 -0.371449 0.000000 0.000000 0.000000 1.039099 1.523610 1.901321 -3.003746 2.915064 -9.362409 2.559824 -2.190710 -59.762605 -174.368528 -59.249460 -168.498376 0.000000 0.000000 0.000000 -2.434964 2.210445 0.752758 9.907276 12.779583 11.506585 -14.552375 29.127038 36.908276 160.902359 68.533920 -159.062374 0.000000 0.000000 0.000000 
1.752825 91.061996 6.873495 0.000000 0.000000 0.000000 8.376711 -57.727707 4.803364 -29.045427 0.112591 26.872558 4.472488 -17.662845 0.685773 12.813557 -18.037539 -34.973000 0.000000 0.000000 0.000000 5.273914 -57.036724 2.789179 -12.827481 9.259369 -27.630957 40.940960 -6.246252 -4.936464 8.963061 17.392363 21.586391 0.000000 0.000000 0.000000 5.610003 -58.447343 2.579742 -0.672931 0.001387 0.057128 3.214460 4.177138 5.126849 0.363169 0.431087 1.977237 0.000000 0.000000 0.000000 -1.715152 1.721621 1.280628 1.840813 1.211832 -0.438422 0.000000 0.000000 0.000000 1.302428 1.244293 1.634463 -3.368888 2.202268 -9.649203 2.635377 -5.589101 -55.852554 -171.829924 -59.676305 -167.061578 0.000000 0.000000 0.000000 -3.015563 1.942600 0.694692 10.112062 11.872622 10.105179 -14.383402 25.774199 34.964780 163.413437 68.920160 -160.676580 0.000000 0.000000 0.000000 
1.360598 94.346649 6.950705 0.000000 0.000000 0.000000 7.068838 -54.096031 3.843987 -28.218378 3.903399 26.819061 6.545573 -16.526836 -0.550947 15.214755 -16.014625 -30.708346 0.000000 0.000000 0.000000 4.196430 -53.315398 2.187389 -18.224934 11.234309 -24.567301 43.877497 -5.834176 -5.347826 13.436502 20.732524 18.817810 0.000000 0.000000 0.000000 4.918856 -54.904305 2.445511 -0.658544 0.021900 0.074744 3.240269 3.258226 4.473015 0.863563 0.191494 1.808076 0.000000 0.000000 0.000000 -1.747097 1.531438 1.308410 1.723936 1.032743 -0.373059 0.000000 0.000000 0.000000 1.632971 0.987535 1.399382 -3.810098 1.431082 -10.041847 1.531771 -8.039122 -53.465970 -169.533287 -60.652196 -165.568457 0.000000 0.000000 0.000000 -3.477163 1.686393 0.680560 10.242809 11.116354 9.427229 -14.114110 22.635354 32.615045 164.729997 70.722620 -160.950170 0.000000 0.000000 0.000000 
0.972766 96.507118 6.981411 0.000000 0.000000 0.000000 5.338555 -51.843892 2.816042 -29.215017 7.673639 27.362720 15.514505 -14.925737 -0.287509 14.386154 -12.549971 -25.915153 0.000000 0.000000 0.000000 3.111326 -51.100760 1.639092 -24.035161 11.856118 -22.298073 45.782563 -6.023757 -4.473603 9.164766 20.421847 16.283639 0.000000 0.000000 0.000000 4.386048 -52.182796 2.567956 -0.688683 0.081170 0.100746 3.827680 2.504988 3.383403 1.288316 -0.035729 1.581543 0.000000 0.000000 0.000000 -1.559559 1.304240 1.147296 1.526544 0.829869 -0.177540 0.000000 0.000000 0.000000 1.920278 0.729260 1.125905 -4.323010 0.549628 -10.359916 -0.629529 -9.471233 -52.751327 -167.621981 -61.881131 -164.176028 0.000000 0.000000 0.000000 -3.847258 1.422333 0.655116 10.267464 10.415817 9.413029 -14.278315 20.147163 31.012966 164.405891 73.412417 -159.539873 0.000000 0.000000 0.000000 
0.614026 97.509956 6.711651 0.000000 0.000000 0.000000 3.891447 -50.221514 1.890903 -29.141046 10.028092 26.956231 25.323464 -13.740112 1.466567 10.276647 -9.581803 -22.068635 0.000000 0.000000 0.000000 2.424763 -49.623947 1.130230 -28.115746 11.143921 -21.011673 43.843302 -6.113739 -2.915162 0.287586 18.638085 15.055361 0.000000 0.000000 0.000000 3.904909 -49.827282 2.506020 -0.719164 0.157116 0.097309 4.516880 1.741243 2.281479 1.590939 -0.302773 1.258212 0.000000 0.000000 0.000000 -1.328313 1.022071 0.787497 1.280082 0.592382 0.148857 0.000000 0.000000 0.000000 2.196017 0.432544 0.766586 -4.875314 -0.495042 -10.433357 -3.350126 -10.188282 -53.385472 -166.335815 -62.983715 -163.177031 0.000000 0.000000 0.000000 -4.034877 1.137609 0.517937 10.272860 9.771182 9.773260 -15.140079 18.407090 30.956436 161.629897 76.131495 -155.722180 0.000000 0.000000 0.000000 
0.152416 97.388725 6.544485 0.000000 0.000000 0.000000 3.272670 -48.159807 1.432519 -26.025659 10.646018 24.906268 32.051148 -13.515000 4.863165 5.227282 -8.072376 -20.366808 0.000000 0.000000 0.000000 2.135236 -47.955930 0.650830 -29.369383 10.415663 -20.895639 37.235275 -4.997035 -1.157958 -6.288355 17.798006 17.146324 0.000000 0.000000 0.000000 3.391447 -47.206880 2.135265 -0.711872 0.234615 0.067532 5.050443 0.912042 1.363117 1.762352 -0.627428 0.880137 0.000000 0.000000 0.000000 -1.149391 0.687026 0.314697 1.008263 0.322045 0.563419 0.000000 0.000000 0.000000 2.392823 0.061457 0.324636 -5.399024 -1.740620 -10.142324 -6.111675 -10.496473 -54.855227 -165.789209 -63.697210 -162.783926 0.000000 0.000000 0.000000 -4.103281 0.810728 0.259359 10.259309 9.268375 10.377700 -16.911371 17.214196 32.368065 155.904122 78.194048 -149.095066 0.000000 0.000000 0.000000 
